<svg width="33" height="33" viewBox="0 0 33 33" fill="none" xmlns="http://www.w3.org/2000/svg">
<circle cx="16.0865" cy="16.0865" r="16.0865" fill="#F1F1F1"/>
<path d="M16 23.1099C15.7722 23.1099 15.5526 23.0273 15.3815 22.8774C14.7351 22.3123 14.1119 21.7811 13.5621 21.3126L13.5593 21.3102C11.9474 19.9365 10.5554 18.7502 9.58691 17.5817C8.50427 16.2753 8 15.0366 8 13.6835C8 12.3688 8.45081 11.1559 9.26929 10.2681C10.0975 9.36975 11.234 8.875 12.4697 8.875C13.3933 8.875 14.2391 9.16699 14.9836 9.7428C15.3594 10.0334 15.7 10.3892 16 10.8041C16.3002 10.3892 16.6406 10.0334 17.0165 9.7428C17.761 9.16699 18.6068 8.875 19.5304 8.875C20.766 8.875 21.9026 9.36975 22.7308 10.2681C23.5493 11.1559 24 12.3688 24 13.6835C24 15.0366 23.4958 16.2753 22.4132 17.5815C21.4447 18.7502 20.0529 19.9364 18.4412 21.3099C17.8904 21.7792 17.2662 22.3112 16.6184 22.8777C16.4474 23.0273 16.2277 23.1099 16 23.1099V23.1099ZM12.4697 9.81226C11.4989 9.81226 10.6071 10.1997 9.95825 10.9033C9.2998 11.6176 8.93713 12.6049 8.93713 13.6835C8.93713 14.8215 9.36011 15.8394 10.3085 16.9836C11.2251 18.0897 12.5885 19.2516 14.1671 20.5969L14.17 20.5994C14.7219 21.0697 15.3475 21.6029 15.9987 22.1722C16.6537 21.6018 17.2803 21.0677 17.8333 20.5967C19.4117 19.2513 20.775 18.0897 21.6917 16.9836C22.6399 15.8394 23.0629 14.8215 23.0629 13.6835C23.0629 12.6049 22.7002 11.6176 22.0417 10.9033C21.3931 10.1997 20.5011 9.81226 19.5304 9.81226C18.8192 9.81226 18.1663 10.0383 17.5897 10.4841C17.0759 10.8816 16.718 11.384 16.5082 11.7356C16.4003 11.9164 16.2103 12.0243 16 12.0243C15.7897 12.0243 15.5997 11.9164 15.4918 11.7356C15.2821 11.384 14.9242 10.8816 14.4103 10.4841C13.8337 10.0383 13.1808 9.81226 12.4697 9.81226V9.81226Z" fill="#333333"/>
</svg>
